<?xml version="1.0" encoding="UTF-8" standalone="no"?>
<!-- Created with Digital by H.Neemann -->
<!-- created: Tue Oct 01 16:27:53 PDT 2024 -->

<svg
   xmlns:svg="http://www.w3.org/2000/svg"
   xmlns="http://www.w3.org/2000/svg"
   width="173.25mm"
   height="100.65mm"
   style="background-color:lightgrey"
   viewBox="887 -114 1155 671">
<g stroke-linecap="square">
<path d="M 1400,300 L 1410,300 L 1420,300" stroke="#000000" stroke-width="4.0" fill="none"/>
<path d="M 1420,320 L 1410,320" stroke="#000000" stroke-width="4.0" fill="none"/>
<path d="M 1420,340 L 1410,340" stroke="#000000" stroke-width="4.0" fill="none"/>
<path d="M 1420,360 L 1410,360" stroke="#000000" stroke-width="4.0" fill="none"/>
<path d="M 1420,380 L 1410,380" stroke="#000000" stroke-width="4.0" fill="none"/>
<path d="M 1420,400 L 1410,400" stroke="#000000" stroke-width="4.0" fill="none"/>
<path d="M 1299,520 L 1299,511" stroke="#000000" stroke-width="4.0" fill="none"/>
<path d="M 1299,440 L 1299,449" stroke="#000000" stroke-width="4.0" fill="none"/>
<path d="M 1920,300 L 1930,300 L 1940,300" stroke="#000000" stroke-width="4.0" fill="none"/>
<path d="M 1940,320 L 1930,320" stroke="#000000" stroke-width="4.0" fill="none"/>
<path d="M 1940,340 L 1930,340" stroke="#000000" stroke-width="4.0" fill="none"/>
<path d="M 1940,360 L 1930,360" stroke="#000000" stroke-width="4.0" fill="none"/>
<path d="M 1940,380 L 1930,380" stroke="#000000" stroke-width="4.0" fill="none"/>
<path d="M 1819,520 L 1819,511" stroke="#000000" stroke-width="4.0" fill="none"/>
<path d="M 1819,440 L 1819,449" stroke="#000000" stroke-width="4.0" fill="none"/>
<path d="M 1094,300 L 1100,300" stroke="#000000" stroke-width="4.0" fill="none"/>
<path d="M 1614,300 L 1620,300" stroke="#000000" stroke-width="4.0" fill="none"/>
<path d="M 1080,436 L 1080,440 L 1080,480 L 1220,480" stroke="#0000b2" stroke-width="4.0" fill="none"/>
<path d="M 1600,436 L 1600,440 L 1600,480 L 1740,480" stroke="#0000b2" stroke-width="4.0" fill="none"/>
<path d="M 1300,480 L 1480,480 L 1480,360 L 1420,360" stroke="#0000b2" stroke-width="4.0" fill="none"/>
<path d="M 1420,320 L 1500,320 L 1500,500 L 1300,500" stroke="#0000b2" stroke-width="4.0" fill="none"/>
<path d="M 1940,320 L 2020,320 L 2020,500 L 1820,500" stroke="#0000b2" stroke-width="4.0" fill="none"/>
<path d="M 1060,140 L 1060,320 L 1140,320" stroke="#0000b2" stroke-width="4.0" fill="none"/>
<path d="M 1580,140 L 1580,320 L 1660,320" stroke="#0000b2" stroke-width="4.0" fill="none"/>
<path d="M 1300,520 L 1520,520 L 1520,300 L 1420,300" stroke="#0000b2" stroke-width="4.0" fill="none"/>
<path d="M 1820,520 L 2040,520 L 2040,300 L 1940,300" stroke="#0000b2" stroke-width="4.0" fill="none"/>
<path d="M 1000,40 L 1040,40 L 1560,40 L 1560,60" stroke="#0000b2" stroke-width="4.0" fill="none"/>
<path d="M 1200,300 L 1220,300 L 1400,300" stroke="#0000b2" stroke-width="4.0" fill="none"/>
<path d="M 1720,300 L 1820,300 L 1920,300" stroke="#0000b2" stroke-width="4.0" fill="none"/>
<path d="M 1620,300 L 1660,300" stroke="#0000b2" stroke-width="4.0" fill="none"/>
<path d="M 1100,300 L 1140,300" stroke="#0000b2" stroke-width="4.0" fill="none"/>
<path d="M 1300,460 L 1460,460 L 1460,380 L 1420,380" stroke="#0000b2" stroke-width="4.0" fill="none"/>
<path d="M 1820,460 L 2000,460 L 2000,340 L 1940,340" stroke="#0000b2" stroke-width="4.0" fill="none"/>
<path d="M 1420,400 L 1440,400 L 1440,440 L 1300,440" stroke="#0000b2" stroke-width="4.0" fill="none"/>
<path d="M 1060,360 L 1060,340 L 1140,340" stroke="#0000b2" stroke-width="4.0" fill="none"/>
<path d="M 1580,360 L 1580,340 L 1660,340" stroke="#0000b2" stroke-width="4.0" fill="none"/>
<path d="M 1820,440 L 1980,440 L 1980,380 L 1940,380" stroke="#0000b2" stroke-width="4.0" fill="none"/>
<path d="M 1000,540 L 1040,540 L 1560,540 L 1560,440 L 1560,436" stroke="#0000b2" stroke-width="4.0" fill="none"/>
<path d="M 1600,20 L 1600,60" stroke="#0000b2" stroke-width="4.0" fill="none"/>
<path d="M 1220,260 L 1220,300" stroke="#0000b2" stroke-width="4.0" fill="none"/>
<path d="M 1040,436 L 1040,440 L 1040,540" stroke="#0000b2" stroke-width="4.0" fill="none"/>
<path d="M 1040,40 L 1040,60" stroke="#0000b2" stroke-width="4.0" fill="none"/>
<path d="M 1080,20 L 1080,60" stroke="#0000b2" stroke-width="4.0" fill="none"/>
<path d="M 1820,260 L 1820,300" stroke="#0000b2" stroke-width="4.0" fill="none"/>
<g>
<circle cx="1040.0" cy="40.0" r="4.0" stroke="#0000b2" stroke-width="4.0" fill="#0000b2" />
<circle cx="1220.0" cy="300.0" r="4.0" stroke="#0000b2" stroke-width="4.0" fill="#0000b2" />
<circle cx="1820.0" cy="300.0" r="4.0" stroke="#0000b2" stroke-width="4.0" fill="#0000b2" />
<circle cx="1040.0" cy="540.0" r="4.0" stroke="#0000b2" stroke-width="4.0" fill="#0000b2" />
</g>
<g>
<path d="M 969,525 L 999,525 L 999,555 L 969,555 Z" stroke="#000000" stroke-width="4.0" fill="none"/>
<circle cx="984.0" cy="540.0" r="9.0" stroke="#000000" stroke-width="4.0" fill="none" />
<text text-anchor="end" x="955.0" y="549.0" fill="#000000" style="font-size:24px"><tspan style="font-style:italic;">CLR</tspan></text>
<circle cx="1000.0" cy="540.0" r="2.0" stroke="#b20000" stroke-width="4.0" fill="#b20000" />
</g>
<g>
<path d="M 1141,290 L 1199,290 L 1199,350 L 1141,350 Z" stroke="#000000" stroke-width="4.0" fill="none"/>
<text text-anchor="middle" x="1170.0" y="282.0" fill="#000000" style="font-size:24px">MINUTES<tspan style="font-size:80%;baseline-shift:sub;">COUNTER</tspan></text>
<text text-anchor="start" x="1144.0" y="306.75" fill="#808080" style="font-size:18px">en</text>
<path d="M 1141,327 L 1148,320 L 1141,313" stroke="#000000" stroke-width="2.0" fill="none"/>
<text text-anchor="start" x="1151.0" y="326.75" fill="#808080" style="font-size:18px">C</text>
<text text-anchor="start" x="1144.0" y="346.75" fill="#808080" style="font-size:18px">clr</text>
<text text-anchor="end" x="1196.0" y="306.75" fill="#808080" style="font-size:18px">out</text>
<text text-anchor="end" x="1196.0" y="326.75" fill="#808080" style="font-size:18px">ovf</text>
<text text-anchor="middle" x="1170.0" y="367.5" fill="#808080" style="font-size:18px">Counter</text>
<circle cx="1140.0" cy="300.0" r="2.0" stroke="#0000b2" stroke-width="4.0" fill="#0000b2" />
<circle cx="1140.0" cy="320.0" r="2.0" stroke="#0000b2" stroke-width="4.0" fill="#0000b2" />
<circle cx="1140.0" cy="340.0" r="2.0" stroke="#0000b2" stroke-width="4.0" fill="#0000b2" />
<circle cx="1200.0" cy="300.0" r="2.0" stroke="#b20000" stroke-width="4.0" fill="#b20000" />
<circle cx="1200.0" cy="320.0" r="2.0" stroke="#b20000" stroke-width="4.0" fill="#b20000" />
</g>
<g>
<text text-anchor="end" x="1398.0" y="297.0" fill="#808080" style="font-size:12px">0-5</text>
<text text-anchor="start" x="1422.0" y="297.0" fill="#808080" style="font-size:12px">0</text>
<text text-anchor="start" x="1422.0" y="317.0" fill="#808080" style="font-size:12px">1</text>
<text text-anchor="start" x="1422.0" y="337.0" fill="#808080" style="font-size:12px">2</text>
<text text-anchor="start" x="1422.0" y="357.0" fill="#808080" style="font-size:12px">3</text>
<text text-anchor="start" x="1422.0" y="377.0" fill="#808080" style="font-size:12px">4</text>
<text text-anchor="start" x="1422.0" y="397.0" fill="#808080" style="font-size:12px">5</text>
<path d="M 1408,298 L 1412,298 L 1412,402 L 1408,402 Z" stroke="#000000" stroke-width="4.0" fill="#000000" fill-opacity="1.0"/>
<circle cx="1400.0" cy="300.0" r="2.0" stroke="#0000b2" stroke-width="4.0" fill="#0000b2" />
<circle cx="1420.0" cy="300.0" r="2.0" stroke="#b20000" stroke-width="4.0" fill="#b20000" />
<circle cx="1420.0" cy="320.0" r="2.0" stroke="#b20000" stroke-width="4.0" fill="#b20000" />
<circle cx="1420.0" cy="340.0" r="2.0" stroke="#b20000" stroke-width="4.0" fill="#b20000" />
<circle cx="1420.0" cy="360.0" r="2.0" stroke="#b20000" stroke-width="4.0" fill="#b20000" />
<circle cx="1420.0" cy="380.0" r="2.0" stroke="#b20000" stroke-width="4.0" fill="#b20000" />
<circle cx="1420.0" cy="400.0" r="2.0" stroke="#b20000" stroke-width="4.0" fill="#b20000" />
</g>
<g>
<circle cx="1220.0" cy="244.0" r="9.0" stroke="#000000" stroke-width="4.0" fill="none" />
<circle cx="1220.0" cy="244.0" r="15.0" stroke="#000000" stroke-width="4.0" fill="none" />
<text text-anchor="start" x="1220.0" y="224.0" fill="#000000" style="font-size:24px" transform="rotate(-90,1220.0,215.0)" ><tspan style="font-style:italic;">MINUTES</tspan></text>
<circle cx="1220.0" cy="260.0" r="2.0" stroke="#0000b2" stroke-width="4.0" fill="#0000b2" />
</g>
<g>
<path d="M 1250,450 L 1299,450 L 1299,510 L 1250,510 C 1240,510 1220,500 1221,480 C 1221,460 1240,450 1250,450 Z" stroke="#000000" stroke-width="4.0" fill="none"/>
<circle cx="1300.0" cy="520.0" r="2.0" stroke="#0000b2" stroke-width="4.0" fill="#0000b2" />
<circle cx="1300.0" cy="500.0" r="2.0" stroke="#0000b2" stroke-width="4.0" fill="#0000b2" />
<circle cx="1300.0" cy="480.0" r="2.0" stroke="#0000b2" stroke-width="4.0" fill="#0000b2" />
<circle cx="1300.0" cy="460.0" r="2.0" stroke="#0000b2" stroke-width="4.0" fill="#0000b2" />
<circle cx="1300.0" cy="440.0" r="2.0" stroke="#0000b2" stroke-width="4.0" fill="#0000b2" />
<circle cx="1220.0" cy="480.0" r="2.0" stroke="#b20000" stroke-width="4.0" fill="#b20000" />
</g>
<g>
<path d="M 1090,410 L 1090,440 C 1074,430 1046,430 1030,440 L 1030,420 C 1030,390 1040,370 1060,360 C 1080,370 1090,390 1090,410 Z" stroke="#000000" stroke-width="4.0" fill="none"/>
<circle cx="1040.0" cy="440.0" r="2.0" stroke="#0000b2" stroke-width="4.0" fill="#0000b2" />
<circle cx="1080.0" cy="440.0" r="2.0" stroke="#0000b2" stroke-width="4.0" fill="#0000b2" />
<circle cx="1060.0" cy="360.0" r="2.0" stroke="#b20000" stroke-width="4.0" fill="#b20000" />
</g>
<g>
<path d="M 1661,290 L 1719,290 L 1719,350 L 1661,350 Z" stroke="#000000" stroke-width="4.0" fill="none"/>
<text text-anchor="middle" x="1690.0" y="282.0" fill="#000000" style="font-size:24px">HOURS<tspan style="font-size:80%;baseline-shift:sub;">COUNTER</tspan></text>
<text text-anchor="start" x="1664.0" y="306.75" fill="#808080" style="font-size:18px">en</text>
<path d="M 1661,327 L 1668,320 L 1661,313" stroke="#000000" stroke-width="2.0" fill="none"/>
<text text-anchor="start" x="1671.0" y="326.75" fill="#808080" style="font-size:18px">C</text>
<text text-anchor="start" x="1664.0" y="346.75" fill="#808080" style="font-size:18px">clr</text>
<text text-anchor="end" x="1716.0" y="306.75" fill="#808080" style="font-size:18px">out</text>
<text text-anchor="end" x="1716.0" y="326.75" fill="#808080" style="font-size:18px">ovf</text>
<text text-anchor="middle" x="1690.0" y="367.5" fill="#808080" style="font-size:18px">Counter</text>
<circle cx="1660.0" cy="300.0" r="2.0" stroke="#0000b2" stroke-width="4.0" fill="#0000b2" />
<circle cx="1660.0" cy="320.0" r="2.0" stroke="#0000b2" stroke-width="4.0" fill="#0000b2" />
<circle cx="1660.0" cy="340.0" r="2.0" stroke="#0000b2" stroke-width="4.0" fill="#0000b2" />
<circle cx="1720.0" cy="300.0" r="2.0" stroke="#b20000" stroke-width="4.0" fill="#b20000" />
<circle cx="1720.0" cy="320.0" r="2.0" stroke="#b20000" stroke-width="4.0" fill="#b20000" />
</g>
<g>
<text text-anchor="end" x="1918.0" y="297.0" fill="#808080" style="font-size:12px">0-4</text>
<text text-anchor="start" x="1942.0" y="297.0" fill="#808080" style="font-size:12px">0</text>
<text text-anchor="start" x="1942.0" y="317.0" fill="#808080" style="font-size:12px">1</text>
<text text-anchor="start" x="1942.0" y="337.0" fill="#808080" style="font-size:12px">2</text>
<text text-anchor="start" x="1942.0" y="357.0" fill="#808080" style="font-size:12px">3</text>
<text text-anchor="start" x="1942.0" y="377.0" fill="#808080" style="font-size:12px">4</text>
<path d="M 1928,298 L 1932,298 L 1932,382 L 1928,382 Z" stroke="#000000" stroke-width="4.0" fill="#000000" fill-opacity="1.0"/>
<circle cx="1920.0" cy="300.0" r="2.0" stroke="#0000b2" stroke-width="4.0" fill="#0000b2" />
<circle cx="1940.0" cy="300.0" r="2.0" stroke="#b20000" stroke-width="4.0" fill="#b20000" />
<circle cx="1940.0" cy="320.0" r="2.0" stroke="#b20000" stroke-width="4.0" fill="#b20000" />
<circle cx="1940.0" cy="340.0" r="2.0" stroke="#b20000" stroke-width="4.0" fill="#b20000" />
<circle cx="1940.0" cy="360.0" r="2.0" stroke="#b20000" stroke-width="4.0" fill="#b20000" />
<circle cx="1940.0" cy="380.0" r="2.0" stroke="#b20000" stroke-width="4.0" fill="#b20000" />
</g>
<g>
<circle cx="1820.0" cy="244.0" r="9.0" stroke="#000000" stroke-width="4.0" fill="none" />
<circle cx="1820.0" cy="244.0" r="15.0" stroke="#000000" stroke-width="4.0" fill="none" />
<text text-anchor="start" x="1820.0" y="224.0" fill="#000000" style="font-size:24px" transform="rotate(-90,1820.0,215.0)" ><tspan style="font-style:italic;">HOURS</tspan></text>
<circle cx="1820.0" cy="260.0" r="2.0" stroke="#0000b2" stroke-width="4.0" fill="#0000b2" />
</g>
<g>
<path d="M 1770,450 L 1819,450 L 1819,510 L 1770,510 C 1760,510 1740,500 1741,480 C 1741,460 1760,450 1770,450 Z" stroke="#000000" stroke-width="4.0" fill="none"/>
<circle cx="1820.0" cy="520.0" r="2.0" stroke="#0000b2" stroke-width="4.0" fill="#0000b2" />
<circle cx="1820.0" cy="500.0" r="2.0" stroke="#0000b2" stroke-width="4.0" fill="#0000b2" />
<circle cx="1820.0" cy="460.0" r="2.0" stroke="#0000b2" stroke-width="4.0" fill="#0000b2" />
<circle cx="1820.0" cy="440.0" r="2.0" stroke="#0000b2" stroke-width="4.0" fill="#0000b2" />
<circle cx="1740.0" cy="480.0" r="2.0" stroke="#b20000" stroke-width="4.0" fill="#b20000" />
</g>
<g>
<path d="M 1610,410 L 1610,440 C 1594,430 1566,430 1550,440 L 1550,420 C 1550,390 1560,370 1580,360 C 1600,370 1610,390 1610,410 Z" stroke="#000000" stroke-width="4.0" fill="none"/>
<circle cx="1560.0" cy="440.0" r="2.0" stroke="#0000b2" stroke-width="4.0" fill="#0000b2" />
<circle cx="1600.0" cy="440.0" r="2.0" stroke="#0000b2" stroke-width="4.0" fill="#0000b2" />
<circle cx="1580.0" cy="360.0" r="2.0" stroke="#b20000" stroke-width="4.0" fill="#b20000" />
</g>
<g>
<path d="M 1104,310 L 1091,300 L 1104,290" stroke="#000000" stroke-width="4.0" fill="none"/>
<circle cx="1100.0" cy="300.0" r="2.0" stroke="#b20000" stroke-width="4.0" fill="#b20000" />
</g>
<g>
<path d="M 1624,310 L 1611,300 L 1624,290" stroke="#000000" stroke-width="4.0" fill="none"/>
<circle cx="1620.0" cy="300.0" r="2.0" stroke="#b20000" stroke-width="4.0" fill="#b20000" />
</g>
<g>
<path d="M 969,25 L 999,25 L 999,55 L 969,55 Z" stroke="#000000" stroke-width="4.0" fill="none"/>
<circle cx="984.0" cy="40.0" r="9.0" stroke="#000000" stroke-width="4.0" fill="none" />
<text text-anchor="end" x="955.0" y="49.0" fill="#000000" style="font-size:24px"><tspan style="font-style:italic;">SETUP</tspan></text>
<circle cx="1000.0" cy="40.0" r="2.0" stroke="#b20000" stroke-width="4.0" fill="#b20000" />
</g>
<g>
<path d="M 1095,-11 L 1095,19 L 1065,19 L 1065,-11 Z" stroke="#000000" stroke-width="4.0" fill="none"/>
<circle cx="1080.0" cy="4.0" r="9.0" stroke="#000000" stroke-width="4.0" fill="none" />
<text text-anchor="start" x="1080.0" y="-16.0" fill="#000000" style="font-size:24px" transform="rotate(-90,1080.0,-25.0)" ><tspan style="font-style:italic;">MIN<tspan style="font-size:80%;baseline-shift:sub;">ADV</tspan></tspan></text>
<circle cx="1080.0" cy="20.0" r="2.0" stroke="#b20000" stroke-width="4.0" fill="#b20000" />
</g>
<g>
<path d="M 1030,110 L 1030,61 L 1090,61 L 1090,110 C 1090,120 1080,140 1060,139 C 1040,139 1030,120 1030,110 Z" stroke="#000000" stroke-width="4.0" fill="none"/>
<circle cx="1080.0" cy="60.0" r="2.0" stroke="#0000b2" stroke-width="4.0" fill="#0000b2" />
<circle cx="1040.0" cy="60.0" r="2.0" stroke="#0000b2" stroke-width="4.0" fill="#0000b2" />
<circle cx="1060.0" cy="140.0" r="2.0" stroke="#b20000" stroke-width="4.0" fill="#b20000" />
</g>
<g>
<path d="M 1550,110 L 1550,61 L 1610,61 L 1610,110 C 1610,120 1600,140 1580,139 C 1560,139 1550,120 1550,110 Z" stroke="#000000" stroke-width="4.0" fill="none"/>
<circle cx="1600.0" cy="60.0" r="2.0" stroke="#0000b2" stroke-width="4.0" fill="#0000b2" />
<circle cx="1560.0" cy="60.0" r="2.0" stroke="#0000b2" stroke-width="4.0" fill="#0000b2" />
<circle cx="1580.0" cy="140.0" r="2.0" stroke="#b20000" stroke-width="4.0" fill="#b20000" />
</g>
<g>
<path d="M 1615,-11 L 1615,19 L 1585,19 L 1585,-11 Z" stroke="#000000" stroke-width="4.0" fill="none"/>
<circle cx="1600.0" cy="4.0" r="9.0" stroke="#000000" stroke-width="4.0" fill="none" />
<text text-anchor="start" x="1600.0" y="-16.0" fill="#000000" style="font-size:24px" transform="rotate(-90,1600.0,-25.0)" ><tspan style="font-style:italic;">HR<tspan style="font-size:80%;baseline-shift:sub;">ADV</tspan></tspan></text>
<circle cx="1600.0" cy="20.0" r="2.0" stroke="#b20000" stroke-width="4.0" fill="#b20000" />
</g>
</g>
</svg>
