<?xml version="1.0" encoding="UTF-8" standalone="no"?>
<!-- Created with Digital by H.Neemann -->
<!-- created: Sat Oct 05 16:18:28 PDT 2024 -->

<svg
   xmlns:svg="http://www.w3.org/2000/svg"
   xmlns="http://www.w3.org/2000/svg"
   width="290.25mm"
   height="108.0mm"
   viewBox="107 -174 1935 720">
<g stroke-linecap="square">
<path d="M 1100,436 L 1100,440 L 1100,480 L 1180,480 L 1220,480" stroke="#0000b2" stroke-width="4.0" fill="none"/>
<path d="M 580,436 L 580,440 L 580,480 L 660,480 L 700,480" stroke="#0000b2" stroke-width="4.0" fill="none"/>
<path d="M 1620,436 L 1620,440 L 1620,480 L 1740,480" stroke="#0000b2" stroke-width="4.0" fill="none"/>
<path d="M 780,480 L 960,480 L 960,360 L 900,360" stroke="#0000b2" stroke-width="4.0" fill="none"/>
<path d="M 1300,480 L 1480,480 L 1480,360 L 1420,360" stroke="#0000b2" stroke-width="4.0" fill="none"/>
<path d="M 1040,280 L 1040,320 L 1140,320" stroke="#0000b2" stroke-width="4.0" fill="none"/>
<path d="M 1560,260 L 1560,320 L 1660,320" stroke="#0000b2" stroke-width="4.0" fill="none"/>
<path d="M 900,320 L 980,320 L 980,500 L 780,500" stroke="#0000b2" stroke-width="4.0" fill="none"/>
<path d="M 1420,320 L 1500,320 L 1500,500 L 1300,500" stroke="#0000b2" stroke-width="4.0" fill="none"/>
<path d="M 1940,320 L 2020,320 L 2020,500 L 1820,500" stroke="#0000b2" stroke-width="4.0" fill="none"/>
<path d="M 500,320 L 620,320" stroke="#0000b2" stroke-width="4.0" fill="none"/>
<path d="M 220,320 L 240,320 L 300,320" stroke="#0000b2" stroke-width="4.0" fill="none"/>
<path d="M 1480,160 L 1560,160 L 1560,180 L 1560,187" stroke="#0000b2" stroke-width="4.0" fill="none"/>
<path d="M 780,520 L 1000,520 L 1000,300 L 900,300" stroke="#0000b2" stroke-width="4.0" fill="none"/>
<path d="M 1300,520 L 1520,520 L 1520,300 L 1420,300" stroke="#0000b2" stroke-width="4.0" fill="none"/>
<path d="M 1820,520 L 2040,520 L 2040,300 L 1940,300" stroke="#0000b2" stroke-width="4.0" fill="none"/>
<path d="M 1200,300 L 1220,300 L 1400,300" stroke="#0000b2" stroke-width="4.0" fill="none"/>
<path d="M 680,300 L 700,300 L 880,300" stroke="#0000b2" stroke-width="4.0" fill="none"/>
<path d="M 1720,300 L 1820,300 L 1920,300" stroke="#0000b2" stroke-width="4.0" fill="none"/>
<path d="M 580,300 L 620,300" stroke="#0000b2" stroke-width="4.0" fill="none"/>
<path d="M 1620,300 L 1660,300" stroke="#0000b2" stroke-width="4.0" fill="none"/>
<path d="M 1100,300 L 1140,300" stroke="#0000b2" stroke-width="4.0" fill="none"/>
<path d="M 380,300 L 420,300 L 424,300" stroke="#0000b2" stroke-width="4.0" fill="none"/>
<path d="M 1300,460 L 1460,460 L 1460,380 L 1420,380" stroke="#0000b2" stroke-width="4.0" fill="none"/>
<path d="M 780,460 L 940,460 L 940,380 L 900,380" stroke="#0000b2" stroke-width="4.0" fill="none"/>
<path d="M 1820,460 L 2000,460 L 2000,340 L 1940,340" stroke="#0000b2" stroke-width="4.0" fill="none"/>
<path d="M 940,140 L 1040,140 L 1040,180 L 1040,187" stroke="#0000b2" stroke-width="4.0" fill="none"/>
<path d="M 900,400 L 920,400 L 920,440 L 780,440" stroke="#0000b2" stroke-width="4.0" fill="none"/>
<path d="M 1420,400 L 1440,400 L 1440,440 L 1300,440" stroke="#0000b2" stroke-width="4.0" fill="none"/>
<path d="M 660,480 L 660,400 L 800,400 L 800,160 L 860,160" stroke="#0000b2" stroke-width="4.0" fill="none"/>
<path d="M 1180,480 L 1180,400 L 1340,400 L 1340,180 L 1400,180" stroke="#0000b2" stroke-width="4.0" fill="none"/>
<path d="M 260,500 L 260,400 L 400,400 L 400,340" stroke="#0000b2" stroke-width="4.0" fill="none"/>
<path d="M 260,280 L 260,-20 L 1040,-20 L 1560,-20 L 1560,0" stroke="#0000b2" stroke-width="4.0" fill="none"/>
<path d="M 220,500 L 260,500 L 540,500 L 540,440 L 540,436" stroke="#0000b2" stroke-width="4.0" fill="none"/>
<path d="M 560,360 L 560,340 L 620,340" stroke="#0000b2" stroke-width="4.0" fill="none"/>
<path d="M 1080,360 L 1080,340 L 1140,340" stroke="#0000b2" stroke-width="4.0" fill="none"/>
<path d="M 1600,360 L 1600,340 L 1660,340" stroke="#0000b2" stroke-width="4.0" fill="none"/>
<path d="M 1820,440 L 1980,440 L 1980,380 L 1940,380" stroke="#0000b2" stroke-width="4.0" fill="none"/>
<path d="M 220,280 L 260,280 L 280,280" stroke="#0000b2" stroke-width="4.0" fill="none"/>
<path d="M 1040,260 L 1040,280 L 1080,280 L 1080,140 L 1380,140" stroke="#0000b2" stroke-width="4.0" fill="none"/>
<path d="M 240,320 L 240,120 L 840,120" stroke="#0000b2" stroke-width="4.0" fill="none"/>
<path d="M 540,500 L 540,540 L 1060,540 L 1580,540 L 1580,440 L 1580,436" stroke="#0000b2" stroke-width="4.0" fill="none"/>
<path d="M 1600,-40 L 1600,0" stroke="#0000b2" stroke-width="4.0" fill="none"/>
<path d="M 1220,260 L 1220,300" stroke="#0000b2" stroke-width="4.0" fill="none"/>
<path d="M 1040,-20 L 1040,0" stroke="#0000b2" stroke-width="4.0" fill="none"/>
<path d="M 1820,260 L 1820,300" stroke="#0000b2" stroke-width="4.0" fill="none"/>
<path d="M 1060,436 L 1060,440 L 1060,540" stroke="#0000b2" stroke-width="4.0" fill="none"/>
<path d="M 1060,80 L 1060,180 L 1060,184" stroke="#0000b2" stroke-width="4.0" fill="none"/>
<path d="M 1580,80 L 1580,180 L 1580,184" stroke="#0000b2" stroke-width="4.0" fill="none"/>
<path d="M 1080,-40 L 1080,0" stroke="#0000b2" stroke-width="4.0" fill="none"/>
<path d="M 700,260 L 700,300" stroke="#0000b2" stroke-width="4.0" fill="none"/>
<path d="M 1540,184 L 1540,180 L 1540,120 L 1020,120 L 1020,40 L 400,40 L 400,340 L 420,340 L 424,340" stroke="#0000b2" stroke-width="4.0" fill="none"/>
<path d="M 1020,120 L 1020,180 L 1020,184" stroke="#0000b2" stroke-width="4.0" fill="none"/>
<path d="M 880,300 L 890,300 L 900,300" stroke="#000000" stroke-width="4.0" fill="none"/>
<path d="M 900,320 L 890,320" stroke="#000000" stroke-width="4.0" fill="none"/>
<path d="M 900,340 L 890,340" stroke="#000000" stroke-width="4.0" fill="none"/>
<path d="M 900,360 L 890,360" stroke="#000000" stroke-width="4.0" fill="none"/>
<path d="M 900,380 L 890,380" stroke="#000000" stroke-width="4.0" fill="none"/>
<path d="M 900,400 L 890,400" stroke="#000000" stroke-width="4.0" fill="none"/>
<path d="M 779,520 L 779,511" stroke="#000000" stroke-width="4.0" fill="none"/>
<path d="M 779,440 L 779,449" stroke="#000000" stroke-width="4.0" fill="none"/>
<path d="M 1400,300 L 1410,300 L 1420,300" stroke="#000000" stroke-width="4.0" fill="none"/>
<path d="M 1420,320 L 1410,320" stroke="#000000" stroke-width="4.0" fill="none"/>
<path d="M 1420,340 L 1410,340" stroke="#000000" stroke-width="4.0" fill="none"/>
<path d="M 1420,360 L 1410,360" stroke="#000000" stroke-width="4.0" fill="none"/>
<path d="M 1420,380 L 1410,380" stroke="#000000" stroke-width="4.0" fill="none"/>
<path d="M 1420,400 L 1410,400" stroke="#000000" stroke-width="4.0" fill="none"/>
<path d="M 1299,520 L 1299,511" stroke="#000000" stroke-width="4.0" fill="none"/>
<path d="M 1299,440 L 1299,449" stroke="#000000" stroke-width="4.0" fill="none"/>
<path d="M 1920,300 L 1930,300 L 1940,300" stroke="#000000" stroke-width="4.0" fill="none"/>
<path d="M 1940,320 L 1930,320" stroke="#000000" stroke-width="4.0" fill="none"/>
<path d="M 1940,340 L 1930,340" stroke="#000000" stroke-width="4.0" fill="none"/>
<path d="M 1940,360 L 1930,360" stroke="#000000" stroke-width="4.0" fill="none"/>
<path d="M 1940,380 L 1930,380" stroke="#000000" stroke-width="4.0" fill="none"/>
<path d="M 1819,520 L 1819,511" stroke="#000000" stroke-width="4.0" fill="none"/>
<path d="M 1819,440 L 1819,449" stroke="#000000" stroke-width="4.0" fill="none"/>
<path d="M 574,300 L 580,300" stroke="#000000" stroke-width="4.0" fill="none"/>
<path d="M 1094,300 L 1100,300" stroke="#000000" stroke-width="4.0" fill="none"/>
<path d="M 1614,300 L 1620,300" stroke="#000000" stroke-width="4.0" fill="none"/>
<g>
<circle cx="1180.0" cy="480.0" r="4.0" stroke="#0000b2" stroke-width="4.0" fill="#0000b2" />
<circle cx="660.0" cy="480.0" r="4.0" stroke="#0000b2" stroke-width="4.0" fill="#0000b2" />
<circle cx="240.0" cy="320.0" r="4.0" stroke="#0000b2" stroke-width="4.0" fill="#0000b2" />
<circle cx="1220.0" cy="300.0" r="4.0" stroke="#0000b2" stroke-width="4.0" fill="#0000b2" />
<circle cx="700.0" cy="300.0" r="4.0" stroke="#0000b2" stroke-width="4.0" fill="#0000b2" />
<circle cx="1820.0" cy="300.0" r="4.0" stroke="#0000b2" stroke-width="4.0" fill="#0000b2" />
<circle cx="1040.0" cy="-20.0" r="4.0" stroke="#0000b2" stroke-width="4.0" fill="#0000b2" />
<circle cx="260.0" cy="500.0" r="4.0" stroke="#0000b2" stroke-width="4.0" fill="#0000b2" />
<circle cx="540.0" cy="500.0" r="4.0" stroke="#0000b2" stroke-width="4.0" fill="#0000b2" />
<circle cx="400.0" cy="340.0" r="4.0" stroke="#0000b2" stroke-width="4.0" fill="#0000b2" />
<circle cx="260.0" cy="280.0" r="4.0" stroke="#0000b2" stroke-width="4.0" fill="#0000b2" />
<circle cx="1040.0" cy="280.0" r="4.0" stroke="#0000b2" stroke-width="4.0" fill="#0000b2" />
<circle cx="1020.0" cy="120.0" r="4.0" stroke="#0000b2" stroke-width="4.0" fill="#0000b2" />
<circle cx="1060.0" cy="540.0" r="4.0" stroke="#0000b2" stroke-width="4.0" fill="#0000b2" />
</g>
<g>
<path d="M 621,290 L 679,290 L 679,350 L 621,350 Z" stroke="#000000" stroke-width="4.0" fill="none"/>
<text text-anchor="middle" x="650.0" y="282.0" fill="#000000" style="font-size:24px">SECONDS<tspan style="font-size:80%;baseline-shift:sub;">COUNTER</tspan></text>
<text text-anchor="start" x="624.0" y="306.75" fill="#808080" style="font-size:18px">en</text>
<path d="M 621,327 L 628,320 L 621,313" stroke="#000000" stroke-width="2.0" fill="none"/>
<text text-anchor="start" x="631.0" y="326.75" fill="#808080" style="font-size:18px">C</text>
<text text-anchor="start" x="624.0" y="346.75" fill="#808080" style="font-size:18px">clr</text>
<text text-anchor="end" x="676.0" y="306.75" fill="#808080" style="font-size:18px">out</text>
<text text-anchor="end" x="676.0" y="326.75" fill="#808080" style="font-size:18px">ovf</text>
<text text-anchor="middle" x="650.0" y="367.5" fill="#808080" style="font-size:18px">Counter</text>
<circle cx="620.0" cy="300.0" r="2.0" stroke="#0000b2" stroke-width="4.0" fill="#0000b2" />
<circle cx="620.0" cy="320.0" r="2.0" stroke="#0000b2" stroke-width="4.0" fill="#0000b2" />
<circle cx="620.0" cy="340.0" r="2.0" stroke="#0000b2" stroke-width="4.0" fill="#0000b2" />
<circle cx="680.0" cy="300.0" r="2.0" stroke="#b20000" stroke-width="4.0" fill="#b20000" />
<circle cx="680.0" cy="320.0" r="2.0" stroke="#b20000" stroke-width="4.0" fill="#b20000" />
</g>
<g>
<text text-anchor="end" x="878.0" y="297.0" fill="#808080" style="font-size:12px">0-5</text>
<text text-anchor="start" x="902.0" y="297.0" fill="#808080" style="font-size:12px">0</text>
<text text-anchor="start" x="902.0" y="317.0" fill="#808080" style="font-size:12px">1</text>
<text text-anchor="start" x="902.0" y="337.0" fill="#808080" style="font-size:12px">2</text>
<text text-anchor="start" x="902.0" y="357.0" fill="#808080" style="font-size:12px">3</text>
<text text-anchor="start" x="902.0" y="377.0" fill="#808080" style="font-size:12px">4</text>
<text text-anchor="start" x="902.0" y="397.0" fill="#808080" style="font-size:12px">5</text>
<path d="M 888,298 L 892,298 L 892,402 L 888,402 Z" stroke="#000000" stroke-width="4.0" fill="#000000" fill-opacity="1.0"/>
<circle cx="880.0" cy="300.0" r="2.0" stroke="#0000b2" stroke-width="4.0" fill="#0000b2" />
<circle cx="900.0" cy="300.0" r="2.0" stroke="#b20000" stroke-width="4.0" fill="#b20000" />
<circle cx="900.0" cy="320.0" r="2.0" stroke="#b20000" stroke-width="4.0" fill="#b20000" />
<circle cx="900.0" cy="340.0" r="2.0" stroke="#b20000" stroke-width="4.0" fill="#b20000" />
<circle cx="900.0" cy="360.0" r="2.0" stroke="#b20000" stroke-width="4.0" fill="#b20000" />
<circle cx="900.0" cy="380.0" r="2.0" stroke="#b20000" stroke-width="4.0" fill="#b20000" />
<circle cx="900.0" cy="400.0" r="2.0" stroke="#b20000" stroke-width="4.0" fill="#b20000" />
</g>
<g>
<circle cx="700.0" cy="244.0" r="9.0" stroke="#000000" stroke-width="4.0" fill="none" />
<circle cx="700.0" cy="244.0" r="15.0" stroke="#000000" stroke-width="4.0" fill="none" />
<text text-anchor="start" x="700.0" y="224.0" fill="#000000" style="font-size:24px" transform="rotate(-90,700.0,215.0)" ><tspan style="font-style:italic;">SECONDS</tspan></text>
<circle cx="700.0" cy="260.0" r="2.0" stroke="#0000b2" stroke-width="4.0" fill="#0000b2" />
</g>
<g>
<path d="M 730,450 L 779,450 L 779,510 L 730,510 C 720,510 700,500 701,480 C 701,460 720,450 730,450 Z" stroke="#000000" stroke-width="4.0" fill="none"/>
<circle cx="780.0" cy="520.0" r="2.0" stroke="#0000b2" stroke-width="4.0" fill="#0000b2" />
<circle cx="780.0" cy="500.0" r="2.0" stroke="#0000b2" stroke-width="4.0" fill="#0000b2" />
<circle cx="780.0" cy="480.0" r="2.0" stroke="#0000b2" stroke-width="4.0" fill="#0000b2" />
<circle cx="780.0" cy="460.0" r="2.0" stroke="#0000b2" stroke-width="4.0" fill="#0000b2" />
<circle cx="780.0" cy="440.0" r="2.0" stroke="#0000b2" stroke-width="4.0" fill="#0000b2" />
<circle cx="700.0" cy="480.0" r="2.0" stroke="#b20000" stroke-width="4.0" fill="#b20000" />
</g>
<g>
<path d="M 189,305 L 219,305 L 219,335 L 189,335 Z" stroke="#000000" stroke-width="4.0" fill="none"/>
<text text-anchor="end" x="175.0" y="329.0" fill="#000000" style="font-size:24px"><tspan style="font-style:italic;">CLK</tspan></text>
<path d="M 195,325 L 200,325 L 200,315 L 205,315 L 205,325 L 210,325 L 210,315 L 215,315" stroke="#000000" stroke-width="2.0" fill="none"/>
<circle cx="220.0" cy="320.0" r="2.0" stroke="#b20000" stroke-width="4.0" fill="#b20000" />
</g>
<g>
<path d="M 590,410 L 590,440 C 574,430 546,430 530,440 L 530,420 C 530,390 540,370 560,360 C 580,370 590,390 590,410 Z" stroke="#000000" stroke-width="4.0" fill="none"/>
<circle cx="540.0" cy="440.0" r="2.0" stroke="#0000b2" stroke-width="4.0" fill="#0000b2" />
<circle cx="580.0" cy="440.0" r="2.0" stroke="#0000b2" stroke-width="4.0" fill="#0000b2" />
<circle cx="560.0" cy="360.0" r="2.0" stroke="#b20000" stroke-width="4.0" fill="#b20000" />
</g>
<g>
<path d="M 189,485 L 219,485 L 219,515 L 189,515 Z" stroke="#000000" stroke-width="4.0" fill="none"/>
<circle cx="204.0" cy="500.0" r="9.0" stroke="#000000" stroke-width="4.0" fill="none" />
<text text-anchor="end" x="175.0" y="509.0" fill="#000000" style="font-size:24px"><tspan style="font-style:italic;">CLR</tspan></text>
<circle cx="220.0" cy="500.0" r="2.0" stroke="#b20000" stroke-width="4.0" fill="#b20000" />
</g>
<g>
<path d="M 1141,290 L 1199,290 L 1199,350 L 1141,350 Z" stroke="#000000" stroke-width="4.0" fill="none"/>
<text text-anchor="middle" x="1170.0" y="282.0" fill="#000000" style="font-size:24px">MINUTES<tspan style="font-size:80%;baseline-shift:sub;">COUNTER</tspan></text>
<text text-anchor="start" x="1144.0" y="306.75" fill="#808080" style="font-size:18px">en</text>
<path d="M 1141,327 L 1148,320 L 1141,313" stroke="#000000" stroke-width="2.0" fill="none"/>
<text text-anchor="start" x="1151.0" y="326.75" fill="#808080" style="font-size:18px">C</text>
<text text-anchor="start" x="1144.0" y="346.75" fill="#808080" style="font-size:18px">clr</text>
<text text-anchor="end" x="1196.0" y="306.75" fill="#808080" style="font-size:18px">out</text>
<text text-anchor="end" x="1196.0" y="326.75" fill="#808080" style="font-size:18px">ovf</text>
<text text-anchor="middle" x="1170.0" y="367.5" fill="#808080" style="font-size:18px">Counter</text>
<circle cx="1140.0" cy="300.0" r="2.0" stroke="#0000b2" stroke-width="4.0" fill="#0000b2" />
<circle cx="1140.0" cy="320.0" r="2.0" stroke="#0000b2" stroke-width="4.0" fill="#0000b2" />
<circle cx="1140.0" cy="340.0" r="2.0" stroke="#0000b2" stroke-width="4.0" fill="#0000b2" />
<circle cx="1200.0" cy="300.0" r="2.0" stroke="#b20000" stroke-width="4.0" fill="#b20000" />
<circle cx="1200.0" cy="320.0" r="2.0" stroke="#b20000" stroke-width="4.0" fill="#b20000" />
</g>
<g>
<text text-anchor="end" x="1398.0" y="297.0" fill="#808080" style="font-size:12px">0-5</text>
<text text-anchor="start" x="1422.0" y="297.0" fill="#808080" style="font-size:12px">0</text>
<text text-anchor="start" x="1422.0" y="317.0" fill="#808080" style="font-size:12px">1</text>
<text text-anchor="start" x="1422.0" y="337.0" fill="#808080" style="font-size:12px">2</text>
<text text-anchor="start" x="1422.0" y="357.0" fill="#808080" style="font-size:12px">3</text>
<text text-anchor="start" x="1422.0" y="377.0" fill="#808080" style="font-size:12px">4</text>
<text text-anchor="start" x="1422.0" y="397.0" fill="#808080" style="font-size:12px">5</text>
<path d="M 1408,298 L 1412,298 L 1412,402 L 1408,402 Z" stroke="#000000" stroke-width="4.0" fill="#000000" fill-opacity="1.0"/>
<circle cx="1400.0" cy="300.0" r="2.0" stroke="#0000b2" stroke-width="4.0" fill="#0000b2" />
<circle cx="1420.0" cy="300.0" r="2.0" stroke="#b20000" stroke-width="4.0" fill="#b20000" />
<circle cx="1420.0" cy="320.0" r="2.0" stroke="#b20000" stroke-width="4.0" fill="#b20000" />
<circle cx="1420.0" cy="340.0" r="2.0" stroke="#b20000" stroke-width="4.0" fill="#b20000" />
<circle cx="1420.0" cy="360.0" r="2.0" stroke="#b20000" stroke-width="4.0" fill="#b20000" />
<circle cx="1420.0" cy="380.0" r="2.0" stroke="#b20000" stroke-width="4.0" fill="#b20000" />
<circle cx="1420.0" cy="400.0" r="2.0" stroke="#b20000" stroke-width="4.0" fill="#b20000" />
</g>
<g>
<circle cx="1220.0" cy="244.0" r="9.0" stroke="#000000" stroke-width="4.0" fill="none" />
<circle cx="1220.0" cy="244.0" r="15.0" stroke="#000000" stroke-width="4.0" fill="none" />
<text text-anchor="start" x="1220.0" y="224.0" fill="#000000" style="font-size:24px" transform="rotate(-90,1220.0,215.0)" ><tspan style="font-style:italic;">MINUTES</tspan></text>
<circle cx="1220.0" cy="260.0" r="2.0" stroke="#0000b2" stroke-width="4.0" fill="#0000b2" />
</g>
<g>
<path d="M 1250,450 L 1299,450 L 1299,510 L 1250,510 C 1240,510 1220,500 1221,480 C 1221,460 1240,450 1250,450 Z" stroke="#000000" stroke-width="4.0" fill="none"/>
<circle cx="1300.0" cy="520.0" r="2.0" stroke="#0000b2" stroke-width="4.0" fill="#0000b2" />
<circle cx="1300.0" cy="500.0" r="2.0" stroke="#0000b2" stroke-width="4.0" fill="#0000b2" />
<circle cx="1300.0" cy="480.0" r="2.0" stroke="#0000b2" stroke-width="4.0" fill="#0000b2" />
<circle cx="1300.0" cy="460.0" r="2.0" stroke="#0000b2" stroke-width="4.0" fill="#0000b2" />
<circle cx="1300.0" cy="440.0" r="2.0" stroke="#0000b2" stroke-width="4.0" fill="#0000b2" />
<circle cx="1220.0" cy="480.0" r="2.0" stroke="#b20000" stroke-width="4.0" fill="#b20000" />
</g>
<g>
<path d="M 1110,410 L 1110,440 C 1094,430 1066,430 1050,440 L 1050,420 C 1050,390 1060,370 1080,360 C 1100,370 1110,390 1110,410 Z" stroke="#000000" stroke-width="4.0" fill="none"/>
<circle cx="1060.0" cy="440.0" r="2.0" stroke="#0000b2" stroke-width="4.0" fill="#0000b2" />
<circle cx="1100.0" cy="440.0" r="2.0" stroke="#0000b2" stroke-width="4.0" fill="#0000b2" />
<circle cx="1080.0" cy="360.0" r="2.0" stroke="#b20000" stroke-width="4.0" fill="#b20000" />
</g>
<g>
<path d="M 1661,290 L 1719,290 L 1719,350 L 1661,350 Z" stroke="#000000" stroke-width="4.0" fill="none"/>
<text text-anchor="middle" x="1690.0" y="282.0" fill="#000000" style="font-size:24px">HOURS<tspan style="font-size:80%;baseline-shift:sub;">COUNTER</tspan></text>
<text text-anchor="start" x="1664.0" y="306.75" fill="#808080" style="font-size:18px">en</text>
<path d="M 1661,327 L 1668,320 L 1661,313" stroke="#000000" stroke-width="2.0" fill="none"/>
<text text-anchor="start" x="1671.0" y="326.75" fill="#808080" style="font-size:18px">C</text>
<text text-anchor="start" x="1664.0" y="346.75" fill="#808080" style="font-size:18px">clr</text>
<text text-anchor="end" x="1716.0" y="306.75" fill="#808080" style="font-size:18px">out</text>
<text text-anchor="end" x="1716.0" y="326.75" fill="#808080" style="font-size:18px">ovf</text>
<text text-anchor="middle" x="1690.0" y="367.5" fill="#808080" style="font-size:18px">Counter</text>
<circle cx="1660.0" cy="300.0" r="2.0" stroke="#0000b2" stroke-width="4.0" fill="#0000b2" />
<circle cx="1660.0" cy="320.0" r="2.0" stroke="#0000b2" stroke-width="4.0" fill="#0000b2" />
<circle cx="1660.0" cy="340.0" r="2.0" stroke="#0000b2" stroke-width="4.0" fill="#0000b2" />
<circle cx="1720.0" cy="300.0" r="2.0" stroke="#b20000" stroke-width="4.0" fill="#b20000" />
<circle cx="1720.0" cy="320.0" r="2.0" stroke="#b20000" stroke-width="4.0" fill="#b20000" />
</g>
<g>
<text text-anchor="end" x="1918.0" y="297.0" fill="#808080" style="font-size:12px">0-4</text>
<text text-anchor="start" x="1942.0" y="297.0" fill="#808080" style="font-size:12px">0</text>
<text text-anchor="start" x="1942.0" y="317.0" fill="#808080" style="font-size:12px">1</text>
<text text-anchor="start" x="1942.0" y="337.0" fill="#808080" style="font-size:12px">2</text>
<text text-anchor="start" x="1942.0" y="357.0" fill="#808080" style="font-size:12px">3</text>
<text text-anchor="start" x="1942.0" y="377.0" fill="#808080" style="font-size:12px">4</text>
<path d="M 1928,298 L 1932,298 L 1932,382 L 1928,382 Z" stroke="#000000" stroke-width="4.0" fill="#000000" fill-opacity="1.0"/>
<circle cx="1920.0" cy="300.0" r="2.0" stroke="#0000b2" stroke-width="4.0" fill="#0000b2" />
<circle cx="1940.0" cy="300.0" r="2.0" stroke="#b20000" stroke-width="4.0" fill="#b20000" />
<circle cx="1940.0" cy="320.0" r="2.0" stroke="#b20000" stroke-width="4.0" fill="#b20000" />
<circle cx="1940.0" cy="340.0" r="2.0" stroke="#b20000" stroke-width="4.0" fill="#b20000" />
<circle cx="1940.0" cy="360.0" r="2.0" stroke="#b20000" stroke-width="4.0" fill="#b20000" />
<circle cx="1940.0" cy="380.0" r="2.0" stroke="#b20000" stroke-width="4.0" fill="#b20000" />
</g>
<g>
<circle cx="1820.0" cy="244.0" r="9.0" stroke="#000000" stroke-width="4.0" fill="none" />
<circle cx="1820.0" cy="244.0" r="15.0" stroke="#000000" stroke-width="4.0" fill="none" />
<text text-anchor="start" x="1820.0" y="224.0" fill="#000000" style="font-size:24px" transform="rotate(-90,1820.0,215.0)" ><tspan style="font-style:italic;">HOURS</tspan></text>
<circle cx="1820.0" cy="260.0" r="2.0" stroke="#0000b2" stroke-width="4.0" fill="#0000b2" />
</g>
<g>
<path d="M 1770,450 L 1819,450 L 1819,510 L 1770,510 C 1760,510 1740,500 1741,480 C 1741,460 1760,450 1770,450 Z" stroke="#000000" stroke-width="4.0" fill="none"/>
<circle cx="1820.0" cy="520.0" r="2.0" stroke="#0000b2" stroke-width="4.0" fill="#0000b2" />
<circle cx="1820.0" cy="500.0" r="2.0" stroke="#0000b2" stroke-width="4.0" fill="#0000b2" />
<circle cx="1820.0" cy="460.0" r="2.0" stroke="#0000b2" stroke-width="4.0" fill="#0000b2" />
<circle cx="1820.0" cy="440.0" r="2.0" stroke="#0000b2" stroke-width="4.0" fill="#0000b2" />
<circle cx="1740.0" cy="480.0" r="2.0" stroke="#b20000" stroke-width="4.0" fill="#b20000" />
</g>
<g>
<path d="M 1630,410 L 1630,440 C 1614,430 1586,430 1570,440 L 1570,420 C 1570,390 1580,370 1600,360 C 1620,370 1630,390 1630,410 Z" stroke="#000000" stroke-width="4.0" fill="none"/>
<circle cx="1580.0" cy="440.0" r="2.0" stroke="#0000b2" stroke-width="4.0" fill="#0000b2" />
<circle cx="1620.0" cy="440.0" r="2.0" stroke="#0000b2" stroke-width="4.0" fill="#0000b2" />
<circle cx="1600.0" cy="360.0" r="2.0" stroke="#b20000" stroke-width="4.0" fill="#b20000" />
</g>
<g>
<path d="M 584,310 L 571,300 L 584,290" stroke="#000000" stroke-width="4.0" fill="none"/>
<circle cx="580.0" cy="300.0" r="2.0" stroke="#b20000" stroke-width="4.0" fill="#b20000" />
</g>
<g>
<path d="M 1104,310 L 1091,300 L 1104,290" stroke="#000000" stroke-width="4.0" fill="none"/>
<circle cx="1100.0" cy="300.0" r="2.0" stroke="#b20000" stroke-width="4.0" fill="#b20000" />
</g>
<g>
<path d="M 1624,310 L 1611,300 L 1624,290" stroke="#000000" stroke-width="4.0" fill="none"/>
<circle cx="1620.0" cy="300.0" r="2.0" stroke="#b20000" stroke-width="4.0" fill="#b20000" />
</g>
<g>
<path d="M 189,265 L 219,265 L 219,295 L 189,295 Z" stroke="#000000" stroke-width="4.0" fill="none"/>
<circle cx="204.0" cy="280.0" r="9.0" stroke="#000000" stroke-width="4.0" fill="none" />
<text text-anchor="end" x="175.0" y="289.0" fill="#000000" style="font-size:24px"><tspan style="font-style:italic;">SETUP</tspan></text>
<circle cx="220.0" cy="280.0" r="2.0" stroke="#b20000" stroke-width="4.0" fill="#b20000" />
</g>
<g>
<path d="M 1095,-71 L 1095,-41 L 1065,-41 L 1065,-71 Z" stroke="#000000" stroke-width="4.0" fill="none"/>
<circle cx="1080.0" cy="-56.0" r="9.0" stroke="#000000" stroke-width="4.0" fill="none" />
<text text-anchor="start" x="1080.0" y="-76.0" fill="#000000" style="font-size:24px" transform="rotate(-90,1080.0,-85.0)" ><tspan style="font-style:italic;">MIN<tspan style="font-size:80%;baseline-shift:sub;">ADV</tspan></tspan></text>
<circle cx="1080.0" cy="-40.0" r="2.0" stroke="#b20000" stroke-width="4.0" fill="#b20000" />
</g>
<g>
<path d="M 1010,210 L 1010,180 C 1026,190 1054,190 1070,180 L 1070,200 C 1070,230 1060,250 1040,260 C 1020,250 1010,230 1010,210 Z" stroke="#000000" stroke-width="4.0" fill="none"/>
<circle cx="1060.0" cy="180.0" r="2.0" stroke="#0000b2" stroke-width="4.0" fill="#0000b2" />
<circle cx="1040.0" cy="180.0" r="2.0" stroke="#0000b2" stroke-width="4.0" fill="#0000b2" />
<circle cx="1020.0" cy="180.0" r="2.0" stroke="#0000b2" stroke-width="4.0" fill="#0000b2" />
<circle cx="1040.0" cy="260.0" r="2.0" stroke="#b20000" stroke-width="4.0" fill="#b20000" />
</g>
<g>
<path d="M 1030,50 L 1030,1 L 1090,1 L 1090,50 C 1090,60 1080,80 1060,79 C 1040,79 1030,60 1030,50 Z" stroke="#000000" stroke-width="4.0" fill="none"/>
<circle cx="1080.0" cy="0.0" r="2.0" stroke="#0000b2" stroke-width="4.0" fill="#0000b2" />
<circle cx="1040.0" cy="0.0" r="2.0" stroke="#0000b2" stroke-width="4.0" fill="#0000b2" />
<circle cx="1060.0" cy="80.0" r="2.0" stroke="#b20000" stroke-width="4.0" fill="#b20000" />
</g>
<g>
<path d="M 1530,210 L 1530,180 C 1546,190 1574,190 1590,180 L 1590,200 C 1590,230 1580,250 1560,260 C 1540,250 1530,230 1530,210 Z" stroke="#000000" stroke-width="4.0" fill="none"/>
<circle cx="1580.0" cy="180.0" r="2.0" stroke="#0000b2" stroke-width="4.0" fill="#0000b2" />
<circle cx="1560.0" cy="180.0" r="2.0" stroke="#0000b2" stroke-width="4.0" fill="#0000b2" />
<circle cx="1540.0" cy="180.0" r="2.0" stroke="#0000b2" stroke-width="4.0" fill="#0000b2" />
<circle cx="1560.0" cy="260.0" r="2.0" stroke="#b20000" stroke-width="4.0" fill="#b20000" />
</g>
<g>
<path d="M 1550,50 L 1550,1 L 1610,1 L 1610,50 C 1610,60 1600,80 1580,79 C 1560,79 1550,60 1550,50 Z" stroke="#000000" stroke-width="4.0" fill="none"/>
<circle cx="1600.0" cy="0.0" r="2.0" stroke="#0000b2" stroke-width="4.0" fill="#0000b2" />
<circle cx="1560.0" cy="0.0" r="2.0" stroke="#0000b2" stroke-width="4.0" fill="#0000b2" />
<circle cx="1580.0" cy="80.0" r="2.0" stroke="#b20000" stroke-width="4.0" fill="#b20000" />
</g>
<g>
<path d="M 1615,-71 L 1615,-41 L 1585,-41 L 1585,-71 Z" stroke="#000000" stroke-width="4.0" fill="none"/>
<circle cx="1600.0" cy="-56.0" r="9.0" stroke="#000000" stroke-width="4.0" fill="none" />
<text text-anchor="start" x="1600.0" y="-76.0" fill="#000000" style="font-size:24px" transform="rotate(-90,1600.0,-85.0)" ><tspan style="font-style:italic;">HR<tspan style="font-size:80%;baseline-shift:sub;">ADV</tspan></tspan></text>
<circle cx="1600.0" cy="-40.0" r="2.0" stroke="#b20000" stroke-width="4.0" fill="#b20000" />
</g>
<g>
<path d="M 450,350 L 420,350 C 430,334 430,306 420,290 L 440,290 C 470,290 490,300 500,320 C 490,340 470,350 450,350 Z" stroke="#000000" stroke-width="4.0" fill="none"/>
<circle cx="420.0" cy="300.0" r="2.0" stroke="#0000b2" stroke-width="4.0" fill="#0000b2" />
<circle cx="420.0" cy="340.0" r="2.0" stroke="#0000b2" stroke-width="4.0" fill="#0000b2" />
<circle cx="500.0" cy="320.0" r="2.0" stroke="#b20000" stroke-width="4.0" fill="#b20000" />
</g>
<g>
<path d="M 350,330 L 301,330 L 301,270 L 350,270 C 360,270 380,280 379,300 C 379,320 360,330 350,330 Z" stroke="#000000" stroke-width="4.0" fill="none"/>
<circle cx="290.0" cy="280.0" r="8.0" stroke="#000000" stroke-width="4.0" fill="none" />
<circle cx="280.0" cy="280.0" r="2.0" stroke="#0000b2" stroke-width="4.0" fill="#0000b2" />
<circle cx="300.0" cy="320.0" r="2.0" stroke="#0000b2" stroke-width="4.0" fill="#0000b2" />
<circle cx="380.0" cy="300.0" r="2.0" stroke="#b20000" stroke-width="4.0" fill="#b20000" />
</g>
<g>
<path d="M 910,170 L 861,170 L 861,110 L 910,110 C 920,110 940,120 939,140 C 939,160 920,170 910,170 Z" stroke="#000000" stroke-width="4.0" fill="none"/>
<circle cx="850.0" cy="120.0" r="8.0" stroke="#000000" stroke-width="4.0" fill="none" />
<circle cx="840.0" cy="120.0" r="2.0" stroke="#0000b2" stroke-width="4.0" fill="#0000b2" />
<circle cx="860.0" cy="160.0" r="2.0" stroke="#0000b2" stroke-width="4.0" fill="#0000b2" />
<circle cx="940.0" cy="140.0" r="2.0" stroke="#b20000" stroke-width="4.0" fill="#b20000" />
</g>
<g>
<path d="M 1450,190 L 1401,190 L 1401,130 L 1450,130 C 1460,130 1480,140 1479,160 C 1479,180 1460,190 1450,190 Z" stroke="#000000" stroke-width="4.0" fill="none"/>
<circle cx="1390.0" cy="140.0" r="8.0" stroke="#000000" stroke-width="4.0" fill="none" />
<circle cx="1380.0" cy="140.0" r="2.0" stroke="#0000b2" stroke-width="4.0" fill="#0000b2" />
<circle cx="1400.0" cy="180.0" r="2.0" stroke="#0000b2" stroke-width="4.0" fill="#0000b2" />
<circle cx="1480.0" cy="160.0" r="2.0" stroke="#b20000" stroke-width="4.0" fill="#b20000" />
</g>
</g>
</svg>